<mxfile host="Electron" agent="Mozilla/5.0 (Macintosh; Intel Mac OS X 10_15_7) AppleWebKit/537.36 (KHTML, like Gecko) draw.io/27.0.9 Chrome/134.0.6998.205 Electron/35.4.0 Safari/537.36" version="27.0.9" pages="1">
  <diagram name="Template" id="sX7S3tRy4Z8Bx3EShi8z">
    <mxGraphModel dx="2305" dy="1134" grid="1" gridSize="10" guides="1" tooltips="1" connect="1" arrows="1" fold="1" page="1" pageScale="1" pageWidth="850" pageHeight="1100" math="0" shadow="0">
      <root>
        <mxCell id="0" />
        <mxCell id="1" parent="0" />
        <mxCell id="XPHsndZZJCqnBg0c9eK1-1" value="&lt;h1 style=&quot;margin-top: 0px;&quot;&gt;Functional Requirements&lt;/h1&gt;&lt;p&gt;&lt;/p&gt;&lt;ul&gt;&lt;li&gt;&lt;br&gt;&lt;/li&gt;&lt;/ul&gt;&lt;p&gt;&lt;/p&gt;" style="text;html=1;whiteSpace=wrap;overflow=hidden;rounded=0;" parent="1" vertex="1">
          <mxGeometry x="40" y="30" width="400" height="170" as="geometry" />
        </mxCell>
        <mxCell id="XPHsndZZJCqnBg0c9eK1-2" value="&lt;h1 style=&quot;margin-top: 0px;&quot;&gt;Non-Functional Requirements&lt;/h1&gt;&lt;p&gt;&lt;/p&gt;&lt;ul&gt;&lt;li&gt;&lt;br&gt;&lt;/li&gt;&lt;/ul&gt;&lt;p&gt;&lt;/p&gt;" style="text;html=1;whiteSpace=wrap;overflow=hidden;rounded=0;" parent="1" vertex="1">
          <mxGeometry x="430" y="30" width="400" height="200" as="geometry" />
        </mxCell>
        <mxCell id="XPHsndZZJCqnBg0c9eK1-3" value="&lt;h1 style=&quot;margin-top: 0px;&quot;&gt;Back of the Envelope Estimations&lt;/h1&gt;&lt;p&gt;&lt;/p&gt;&lt;ul&gt;&lt;li&gt;&lt;br&gt;&lt;/li&gt;&lt;/ul&gt;&lt;p&gt;&lt;/p&gt;" style="text;html=1;whiteSpace=wrap;overflow=hidden;rounded=0;" parent="1" vertex="1">
          <mxGeometry x="880" y="30" width="400" height="200" as="geometry" />
        </mxCell>
        <mxCell id="XPHsndZZJCqnBg0c9eK1-4" value="&lt;h1 style=&quot;margin-top: 0px;&quot;&gt;Notes&lt;/h1&gt;&lt;p&gt;&lt;/p&gt;&lt;ul&gt;&lt;li&gt;&lt;br&gt;&lt;/li&gt;&lt;/ul&gt;&lt;p&gt;&lt;/p&gt;" style="text;html=1;whiteSpace=wrap;overflow=hidden;rounded=0;" parent="1" vertex="1">
          <mxGeometry x="1330" y="30" width="400" height="200" as="geometry" />
        </mxCell>
        <mxCell id="27VbrXChBbFN_Ox-OqeP-1" value="&lt;h2 style=&quot;box-sizing: border-box; margin-bottom: 16px; line-height: 1.25; padding-bottom: 0.3em; border-bottom: 1px solid rgba(209, 217, 224, 0.7); color: rgb(31, 35, 40); font-family: -apple-system, &amp;quot;system-ui&amp;quot;, &amp;quot;Segoe UI&amp;quot;, &amp;quot;Noto Sans&amp;quot;, Helvetica, Arial, sans-serif, &amp;quot;Apple Color Emoji&amp;quot;, &amp;quot;Segoe UI Emoji&amp;quot;; background-color: rgb(255, 255, 255); margin-top: 0px !important;&quot; dir=&quot;auto&quot; class=&quot;heading-element&quot;&gt;Easy to remember numbers for back-of-the-envelope calculations in system design interviews&lt;/h2&gt;&lt;div style=&quot;box-sizing: border-box; position: relative; color: rgb(31, 35, 40); font-family: -apple-system, &amp;quot;system-ui&amp;quot;, &amp;quot;Segoe UI&amp;quot;, &amp;quot;Noto Sans&amp;quot;, Helvetica, Arial, sans-serif, &amp;quot;Apple Color Emoji&amp;quot;, &amp;quot;Segoe UI Emoji&amp;quot;; font-size: 16px; background-color: rgb(255, 255, 255); margin-top: 0px !important;&quot; dir=&quot;auto&quot; class=&quot;markdown-heading&quot;&gt;&lt;h2 style=&quot;box-sizing: border-box; margin-bottom: 16px; line-height: 1.25; padding-bottom: 0.3em; border-bottom: 1px solid rgba(209, 217, 224, 0.7); margin-top: 0px !important;&quot; dir=&quot;auto&quot; class=&quot;heading-element&quot;&gt;&lt;span style=&quot;font-size: 1.25em; font-weight: normal;&quot;&gt;Powers of two table&lt;/span&gt;&lt;/h2&gt;&lt;/div&gt;&lt;div style=&quot;box-sizing: border-box; position: relative; color: rgb(31, 35, 40); font-family: -apple-system, &amp;quot;system-ui&amp;quot;, &amp;quot;Segoe UI&amp;quot;, &amp;quot;Noto Sans&amp;quot;, Helvetica, Arial, sans-serif, &amp;quot;Apple Color Emoji&amp;quot;, &amp;quot;Segoe UI Emoji&amp;quot;; font-size: 16px; background-color: rgb(255, 255, 255);&quot; dir=&quot;auto&quot; class=&quot;markdown-heading&quot;&gt;&lt;a style=&quot;box-sizing: border-box; background-color: transparent; color: rgb(9, 105, 218); float: left; padding-right: 4px; margin: auto; line-height: 1; position: absolute; top: 12.5px; left: -28px; display: flex; width: 28px; height: 28px; border-radius: 6px; opacity: 0; justify-content: center; align-items: center; transform: translateY(-50%); text-underline-offset: 0.2rem;&quot; href=&quot;https://gist.github.com/mwakaba2/8ad25dda8c71fe529855994c70743733#powers-of-two-table&quot; aria-label=&quot;Permalink: Powers of two table&quot; class=&quot;anchor&quot; id=&quot;user-content-powers-of-two-table&quot;&gt;&lt;svg aria-hidden=&quot;true&quot; height=&quot;16&quot; width=&quot;16&quot; version=&quot;1.1&quot; viewBox=&quot;0 0 16 16&quot; class=&quot;octicon octicon-link&quot;&gt;&lt;path d=&quot;m7.775 3.275 1.25-1.25a3.5 3.5 0 1 1 4.95 4.95l-2.5 2.5a3.5 3.5 0 0 1-4.95 0 .751.751 0 0 1 .018-1.042.751.751 0 0 1 1.042-.018 1.998 1.998 0 0 0 2.83 0l2.5-2.5a2.002 2.002 0 0 0-2.83-2.83l-1.25 1.25a.751.751 0 0 1-1.042-.018.751.751 0 0 1-.018-1.042Zm-4.69 9.64a1.998 1.998 0 0 0 2.83 0l1.25-1.25a.751.751 0 0 1 1.042.018.751.751 0 0 1 .018 1.042l-1.25 1.25a3.5 3.5 0 1 1-4.95-4.95l2.5-2.5a3.5 3.5 0 0 1 4.95 0 .751.751 0 0 1-.018 1.042.751.751 0 0 1-1.042.018 1.998 1.998 0 0 0-2.83 0l-2.5 2.5a1.998 1.998 0 0 0 0 2.83Z&quot;&gt;&lt;/path&gt;&lt;/svg&gt;&lt;/a&gt;&lt;/div&gt;&lt;pre style=&quot;box-sizing: border-box; font-family: ui-monospace, SFMono-Regular, &amp;quot;SF Mono&amp;quot;, Menlo, Consolas, &amp;quot;Liberation Mono&amp;quot;, monospace; font-size: 13.6px; margin-top: 0px; margin-bottom: 16px; overflow-wrap: normal; padding: 16px; overflow: auto; line-height: 1.45; color: rgb(31, 35, 40); background-color: rgb(246, 248, 250); border-radius: 6px;&quot;&gt;&lt;code style=&quot;box-sizing: border-box; font-family: ui-monospace, SFMono-Regular, &amp;quot;SF Mono&amp;quot;, Menlo, Consolas, &amp;quot;Liberation Mono&amp;quot;, monospace; font-size: 13.6px; padding: 0px; margin: 0px; background: transparent; border-radius: 6px; word-break: normal; border: 0px; display: inline; overflow: visible; line-height: inherit; overflow-wrap: normal;&quot;&gt;Power    Approx Value (Bytes)       Bytes&lt;br&gt;-----------------------------------------&lt;br&gt;10                 1 thousand        1 KB&lt;br&gt;16                65 thousand       64 KB&lt;br&gt;20                  1 million        1 MB&lt;br&gt;30                  1 billion        1 GB&lt;br&gt;32                  4 billion        4 GB&lt;br&gt;40                 1 trillion        1 TB&lt;br&gt;50              1 quadrillion        1 PB&lt;br&gt;&lt;/code&gt;&lt;/pre&gt;&lt;div style=&quot;box-sizing: border-box; position: relative; color: rgb(31, 35, 40); font-family: -apple-system, &amp;quot;system-ui&amp;quot;, &amp;quot;Segoe UI&amp;quot;, &amp;quot;Noto Sans&amp;quot;, Helvetica, Arial, sans-serif, &amp;quot;Apple Color Emoji&amp;quot;, &amp;quot;Segoe UI Emoji&amp;quot;; font-size: 16px; background-color: rgb(255, 255, 255);&quot; dir=&quot;auto&quot; class=&quot;markdown-heading&quot;&gt;&lt;h3 style=&quot;box-sizing: border-box; margin-top: 24px; margin-bottom: 16px; font-size: 1.25em; line-height: 1.25;&quot; dir=&quot;auto&quot; class=&quot;heading-element&quot;&gt;Bytes to store different data types in SQL&lt;/h3&gt;&lt;a style=&quot;box-sizing: border-box; background-color: transparent; color: rgb(9, 105, 218); float: left; padding-right: 4px; margin: auto; line-height: 1; position: absolute; top: 12.5px; left: -28px; display: flex; width: 28px; height: 28px; border-radius: 6px; opacity: 0; justify-content: center; align-items: center; transform: translateY(-50%); text-underline-offset: 0.2rem;&quot; href=&quot;https://gist.github.com/mwakaba2/8ad25dda8c71fe529855994c70743733#bytes-to-store-different-data-types-in-sql&quot; aria-label=&quot;Permalink: Bytes to store different data types in SQL&quot; class=&quot;anchor&quot; id=&quot;user-content-bytes-to-store-different-data-types-in-sql&quot;&gt;&lt;svg aria-hidden=&quot;true&quot; height=&quot;16&quot; width=&quot;16&quot; version=&quot;1.1&quot; viewBox=&quot;0 0 16 16&quot; class=&quot;octicon octicon-link&quot;&gt;&lt;path d=&quot;m7.775 3.275 1.25-1.25a3.5 3.5 0 1 1 4.95 4.95l-2.5 2.5a3.5 3.5 0 0 1-4.95 0 .751.751 0 0 1 .018-1.042.751.751 0 0 1 1.042-.018 1.998 1.998 0 0 0 2.83 0l2.5-2.5a2.002 2.002 0 0 0-2.83-2.83l-1.25 1.25a.751.751 0 0 1-1.042-.018.751.751 0 0 1-.018-1.042Zm-4.69 9.64a1.998 1.998 0 0 0 2.83 0l1.25-1.25a.751.751 0 0 1 1.042.018.751.751 0 0 1 .018 1.042l-1.25 1.25a3.5 3.5 0 1 1-4.95-4.95l2.5-2.5a3.5 3.5 0 0 1 4.95 0 .751.751 0 0 1-.018 1.042.751.751 0 0 1-1.042.018 1.998 1.998 0 0 0-2.83 0l-2.5 2.5a1.998 1.998 0 0 0 0 2.83Z&quot;&gt;&lt;/path&gt;&lt;/svg&gt;&lt;/a&gt;&lt;/div&gt;&lt;pre style=&quot;box-sizing: border-box; font-family: ui-monospace, SFMono-Regular, &amp;quot;SF Mono&amp;quot;, Menlo, Consolas, &amp;quot;Liberation Mono&amp;quot;, monospace; font-size: 13.6px; margin-top: 0px; margin-bottom: 16px; overflow-wrap: normal; padding: 16px; overflow: auto; line-height: 1.45; color: rgb(31, 35, 40); background-color: rgb(246, 248, 250); border-radius: 6px;&quot;&gt;&lt;code style=&quot;box-sizing: border-box; font-family: ui-monospace, SFMono-Regular, &amp;quot;SF Mono&amp;quot;, Menlo, Consolas, &amp;quot;Liberation Mono&amp;quot;, monospace; font-size: 13.6px; padding: 0px; margin: 0px; background: transparent; border-radius: 6px; word-break: normal; border: 0px; display: inline; overflow: visible; line-height: inherit; overflow-wrap: normal;&quot;&gt;Data type              Bytes&lt;br&gt;-----------------------------&lt;br&gt;ASCII character             1&lt;br&gt;UNICODE character           2&lt;br&gt;&lt;br&gt;Bytes calculation for string of length x&lt;br&gt;-----------------------------------------&lt;br&gt;(x*(bytes to store the char)*(8 bits)) / 8 bits&lt;br&gt;&lt;br&gt;&lt;br&gt;https://dev.mysql.com/doc/refman/8.0/en/storage-requirements.html&lt;br&gt;&lt;/code&gt;&lt;/pre&gt;&lt;div style=&quot;box-sizing: border-box; position: relative; color: rgb(31, 35, 40); font-family: -apple-system, &amp;quot;system-ui&amp;quot;, &amp;quot;Segoe UI&amp;quot;, &amp;quot;Noto Sans&amp;quot;, Helvetica, Arial, sans-serif, &amp;quot;Apple Color Emoji&amp;quot;, &amp;quot;Segoe UI Emoji&amp;quot;; font-size: 16px; background-color: rgb(255, 255, 255);&quot; dir=&quot;auto&quot; class=&quot;markdown-heading&quot;&gt;&lt;h3 style=&quot;box-sizing: border-box; margin-top: 24px; margin-bottom: 16px; font-size: 1.25em; line-height: 1.25;&quot; dir=&quot;auto&quot; class=&quot;heading-element&quot;&gt;Latency numbers every programmer should know in seconds&lt;/h3&gt;&lt;a style=&quot;box-sizing: border-box; background-color: transparent; color: rgb(9, 105, 218); float: left; padding-right: 4px; margin: auto; line-height: 1; position: absolute; top: 12.5px; left: -28px; display: flex; width: 28px; height: 28px; border-radius: 6px; opacity: 0; justify-content: center; align-items: center; transform: translateY(-50%); text-underline-offset: 0.2rem;&quot; href=&quot;https://gist.github.com/mwakaba2/8ad25dda8c71fe529855994c70743733#latency-numbers-every-programmer-should-know-in-seconds&quot; aria-label=&quot;Permalink: Latency numbers every programmer should know in seconds&quot; class=&quot;anchor&quot; id=&quot;user-content-latency-numbers-every-programmer-should-know-in-seconds&quot;&gt;&lt;svg aria-hidden=&quot;true&quot; height=&quot;16&quot; width=&quot;16&quot; version=&quot;1.1&quot; viewBox=&quot;0 0 16 16&quot; class=&quot;octicon octicon-link&quot;&gt;&lt;path d=&quot;m7.775 3.275 1.25-1.25a3.5 3.5 0 1 1 4.95 4.95l-2.5 2.5a3.5 3.5 0 0 1-4.95 0 .751.751 0 0 1 .018-1.042.751.751 0 0 1 1.042-.018 1.998 1.998 0 0 0 2.83 0l2.5-2.5a2.002 2.002 0 0 0-2.83-2.83l-1.25 1.25a.751.751 0 0 1-1.042-.018.751.751 0 0 1-.018-1.042Zm-4.69 9.64a1.998 1.998 0 0 0 2.83 0l1.25-1.25a.751.751 0 0 1 1.042.018.751.751 0 0 1 .018 1.042l-1.25 1.25a3.5 3.5 0 1 1-4.95-4.95l2.5-2.5a3.5 3.5 0 0 1 4.95 0 .751.751 0 0 1-.018 1.042.751.751 0 0 1-1.042.018 1.998 1.998 0 0 0-2.83 0l-2.5 2.5a1.998 1.998 0 0 0 0 2.83Z&quot;&gt;&lt;/path&gt;&lt;/svg&gt;&lt;/a&gt;&lt;/div&gt;&lt;p style=&quot;box-sizing: border-box; margin-top: 0px; margin-bottom: 16px; color: rgb(31, 35, 40); font-family: -apple-system, &amp;quot;system-ui&amp;quot;, &amp;quot;Segoe UI&amp;quot;, &amp;quot;Noto Sans&amp;quot;, Helvetica, Arial, sans-serif, &amp;quot;Apple Color Emoji&amp;quot;, &amp;quot;Segoe UI Emoji&amp;quot;; font-size: 16px; background-color: rgb(255, 255, 255);&quot; dir=&quot;auto&quot;&gt;In a system design discussion, we normally discuss numbers in seconds or using relative comparisons. I doubt we are expected to know the exact numbers so, I created a cheat sheet that would be easy to remember and includes references to newer technology.&lt;/p&gt;&lt;pre style=&quot;box-sizing: border-box; font-family: ui-monospace, SFMono-Regular, &amp;quot;SF Mono&amp;quot;, Menlo, Consolas, &amp;quot;Liberation Mono&amp;quot;, monospace; font-size: 13.6px; margin-top: 0px; margin-bottom: 16px; overflow-wrap: normal; padding: 16px; overflow: auto; line-height: 1.45; color: rgb(31, 35, 40); background-color: rgb(246, 248, 250); border-radius: 6px;&quot;&gt;&lt;code style=&quot;box-sizing: border-box; font-family: ui-monospace, SFMono-Regular, &amp;quot;SF Mono&amp;quot;, Menlo, Consolas, &amp;quot;Liberation Mono&amp;quot;, monospace; font-size: 13.6px; padding: 0px; margin: 0px; background: transparent; border-radius: 6px; word-break: normal; border: 0px; display: inline; overflow: visible; line-height: inherit; overflow-wrap: normal;&quot;&gt;Latency Comparison Numbers&lt;br&gt;--------------------------&lt;br&gt;L1 cache can be accessed 14x faster than L2 cache.&lt;br&gt;Main memory access is 20x slower than L2, 200x slower than L1.&lt;br&gt;&lt;br&gt;Zippy Compression at 250 MB/sec.&lt;br&gt;Send data over 1 Gbps network at 100 MB/sec.&lt;br&gt;Read sequentially from 1 Gbps Ethernet at 100 MB/sec.&lt;br&gt;Read randomly/sequentially from SSD at ~ 1 GB/sec.&lt;br&gt;Read sequentially from main memory at 4 GB/sec.&lt;br&gt;Read sequentially from disk at 30 MB/sec.&lt;br&gt;Disk seeks at 100 seeks/sec.&lt;br&gt;Round-trips within a data center at 2,000 trips/sec.&lt;br&gt;World-wide round trips at 6-7 trips/sec.&lt;br&gt;&lt;br&gt;1MB sequential read from memory --&amp;gt; 250 micro seconds&lt;br&gt;1MB sequential read from ssd    --&amp;gt; 4x of memory&lt;br&gt;1MB sequential read from disk   --&amp;gt; 80x of memory&lt;br&gt;&lt;/code&gt;&lt;/pre&gt;&lt;div style=&quot;box-sizing: border-box; position: relative; color: rgb(31, 35, 40); font-family: -apple-system, &amp;quot;system-ui&amp;quot;, &amp;quot;Segoe UI&amp;quot;, &amp;quot;Noto Sans&amp;quot;, Helvetica, Arial, sans-serif, &amp;quot;Apple Color Emoji&amp;quot;, &amp;quot;Segoe UI Emoji&amp;quot;; font-size: 16px; background-color: rgb(255, 255, 255);&quot; dir=&quot;auto&quot; class=&quot;markdown-heading&quot;&gt;&lt;h3 style=&quot;box-sizing: border-box; margin-top: 24px; margin-bottom: 16px; font-size: 1.25em; line-height: 1.25;&quot; dir=&quot;auto&quot; class=&quot;heading-element&quot;&gt;Handy numbers for requests calculations.&lt;/h3&gt;&lt;a style=&quot;box-sizing: border-box; background-color: transparent; color: rgb(9, 105, 218); float: left; padding-right: 4px; margin: auto; line-height: 1; position: absolute; top: 12.5px; left: -28px; display: flex; width: 28px; height: 28px; border-radius: 6px; opacity: 0; justify-content: center; align-items: center; transform: translateY(-50%); text-underline-offset: 0.2rem;&quot; href=&quot;https://gist.github.com/mwakaba2/8ad25dda8c71fe529855994c70743733#handy-numbers-for-requests-calculations&quot; aria-label=&quot;Permalink: Handy numbers for requests calculations.&quot; class=&quot;anchor&quot; id=&quot;user-content-handy-numbers-for-requests-calculations&quot;&gt;&lt;svg aria-hidden=&quot;true&quot; height=&quot;16&quot; width=&quot;16&quot; version=&quot;1.1&quot; viewBox=&quot;0 0 16 16&quot; class=&quot;octicon octicon-link&quot;&gt;&lt;path d=&quot;m7.775 3.275 1.25-1.25a3.5 3.5 0 1 1 4.95 4.95l-2.5 2.5a3.5 3.5 0 0 1-4.95 0 .751.751 0 0 1 .018-1.042.751.751 0 0 1 1.042-.018 1.998 1.998 0 0 0 2.83 0l2.5-2.5a2.002 2.002 0 0 0-2.83-2.83l-1.25 1.25a.751.751 0 0 1-1.042-.018.751.751 0 0 1-.018-1.042Zm-4.69 9.64a1.998 1.998 0 0 0 2.83 0l1.25-1.25a.751.751 0 0 1 1.042.018.751.751 0 0 1 .018 1.042l-1.25 1.25a3.5 3.5 0 1 1-4.95-4.95l2.5-2.5a3.5 3.5 0 0 1 4.95 0 .751.751 0 0 1-.018 1.042.751.751 0 0 1-1.042.018 1.998 1.998 0 0 0-2.83 0l-2.5 2.5a1.998 1.998 0 0 0 0 2.83Z&quot;&gt;&lt;/path&gt;&lt;/svg&gt;&lt;/a&gt;&lt;/div&gt;&lt;pre style=&quot;box-sizing: border-box; font-family: ui-monospace, SFMono-Regular, &amp;quot;SF Mono&amp;quot;, Menlo, Consolas, &amp;quot;Liberation Mono&amp;quot;, monospace; font-size: 13.6px; margin-top: 0px; margin-bottom: 16px; overflow-wrap: normal; padding: 16px; overflow: auto; line-height: 1.45; color: rgb(31, 35, 40); background-color: rgb(246, 248, 250); border-radius: 6px;&quot;&gt;&lt;code style=&quot;box-sizing: border-box; font-family: ui-monospace, SFMono-Regular, &amp;quot;SF Mono&amp;quot;, Menlo, Consolas, &amp;quot;Liberation Mono&amp;quot;, monospace; font-size: 13.6px; padding: 0px; margin: 0px; background: transparent; border-radius: 6px; word-break: normal; border: 0px; display: inline; overflow: visible; line-height: inherit; overflow-wrap: normal;&quot;&gt;Numbers for requests calculations&lt;br&gt;---------------------------------&lt;br&gt;2.5 million seconds per month&lt;br&gt;&lt;br&gt;1 million reqs/month   --&amp;gt;  .4 reqs/sec&lt;br&gt;2.6 million reqs/month --&amp;gt;   1 reqs/sec&lt;br&gt;5 million reqs/month   --&amp;gt;   2 reqs/sec&lt;br&gt;10 million reqs/month  --&amp;gt;   4 reqs/sec&lt;br&gt;100 million reqs/month --&amp;gt;  40 reqs/sec&lt;br&gt;1 billion reqs/month   --&amp;gt; 400 reqs/sec&lt;/code&gt;&lt;/pre&gt;" style="text;html=1;whiteSpace=wrap;overflow=hidden;rounded=0;" vertex="1" parent="1">
          <mxGeometry x="70" y="200" width="1170" height="1450" as="geometry" />
        </mxCell>
      </root>
    </mxGraphModel>
  </diagram>
</mxfile> 